<?xml version="1.0" encoding="UTF-8"?>
<svg id="Layer_1" data-name="Layer 1" xmlns="http://www.w3.org/2000/svg" viewBox="0 0 290.34 97.5">
  <defs>
    <style>
      .cls-1 {
        fill: #00a551;
      }

      .cls-2 {
        fill: #fff;
      }

      .cls-3 {
        fill: #ec1c24;
      }
    </style>
  </defs>
  <g>
    <path class="cls-2" d="M64.09,47.51h0c-.04-.1-.08-.22-.12-.32-.45-1.24-.88-2.43-1.28-3.57-2.35-6.59-3.97-11.41-5.17-15.22v-.03c-.27-.84-.51-1.63-.73-2.37h-.28c-.19,.73-.42,1.54-.67,2.43v.02c-.32,1.09-.67,2.28-1.06,3.56-1.3,4.32-3.03,9.64-4.98,15.23-.03,.09-.06,.18-.09,.27h0l-1.42,4.4,9.02-5.21,2.21-1.27,4.62,13.1-22.06,12.74-.07,.04H23.5l2.46-6.5L45.06,14.33h24.15l8.37,20.75,14.61,36.25h-19.91l-8.18-23.82Z"/>
    <g>
      <path class="cls-1" d="M59.02,52.77h.06v-.04s-.06,.04-.06,.04Z"/>
      <path class="cls-1" d="M59.06,97.12c-24.47,0-44.38-19.91-44.38-44.38,0-9.79,3.12-19.06,9.03-26.83l1.19,.91c-5.71,7.5-8.72,16.46-8.72,25.92,0,23.64,19.24,42.88,42.88,42.88,16.02,0,30.59-8.83,38.01-23.03l1.33,.69c-7.68,14.7-22.76,23.84-39.34,23.84Z"/>
      <path class="cls-1" d="M27.17,28.5c-3.17,0-5.74-2.58-5.74-5.74s2.58-5.74,5.74-5.74,5.74,2.58,5.74,5.74-2.58,5.74-5.74,5.74Zm0-9.24c-1.93,0-3.5,1.57-3.5,3.5s1.57,3.5,3.5,3.5,3.5-1.57,3.5-3.5-1.57-3.5-3.5-3.5Z"/>
      <path class="cls-1" d="M99.37,74.6c-3.17,0-5.74-2.58-5.74-5.74s2.58-5.74,5.74-5.74,5.74,2.58,5.74,5.74-2.58,5.74-5.74,5.74Zm0-9.24c-1.93,0-3.5,1.57-3.5,3.5s1.57,3.5,3.5,3.5,3.5-1.57,3.5-3.5-1.57-3.5-3.5-3.5Z"/>
    </g>
    <g>
      <path class="cls-3" d="M57.84,54.97h-.07s-.02,.06-.02,.06l.09-.06Z"/>
      <path class="cls-3" d="M102.95,86.41l-1.23-.86c6.73-9.65,10.02-20.98,9.53-32.77C110.03,23.3,85.06,.3,55.57,1.54c-19.98,.83-37.68,12.59-46.2,30.69l-1.36-.64C16.77,12.99,34.97,.9,55.51,.05c30.29-1.26,55.98,22.37,57.24,52.67,.5,12.12-2.88,23.77-9.8,33.69Z"/>
      <path class="cls-3" d="M98.97,97.5c-3.66,0-6.71-2.9-6.86-6.59h0c-.16-3.79,2.79-6.99,6.58-7.15,1.83-.08,3.59,.57,4.94,1.81,1.35,1.24,2.14,2.94,2.21,4.77,.16,3.79-2.79,6.99-6.58,7.15-.1,0-.19,0-.29,0Zm-4.62-6.68c.11,2.55,2.28,4.53,4.81,4.43,1.23-.05,2.37-.58,3.21-1.49,.84-.91,1.27-2.09,1.22-3.32-.05-1.23-.58-2.37-1.49-3.21-.91-.84-2.09-1.26-3.32-1.22-2.55,.11-4.53,2.26-4.43,4.81h0Z"/>
      <path class="cls-3" d="M6.86,43.95c-1.73,0-3.37-.64-4.64-1.81C.87,40.89,.08,39.2,0,37.36H0c-.16-3.79,2.79-6.99,6.58-7.15,1.83-.07,3.59,.57,4.94,1.81,1.35,1.24,2.14,2.94,2.21,4.77,.08,1.83-.57,3.59-1.81,4.94s-2.94,2.14-4.77,2.21c-.1,0-.2,0-.29,0Zm-4.61-6.68c.05,1.23,.58,2.37,1.49,3.21,.91,.84,2.09,1.26,3.32,1.22,1.23-.05,2.37-.58,3.21-1.49,.84-.91,1.27-2.09,1.22-3.32-.05-1.23-.58-2.37-1.49-3.21-.91-.84-2.09-1.26-3.32-1.22-2.55,.11-4.53,2.26-4.43,4.81h0Z"/>
    </g>
  </g>
  <g>
    <polygon class="cls-1" points="255.2 57.27 251.7 62.64 231.77 62.64 231.77 45.61 253.59 45.6 250.56 50.97 238.49 50.97 238.49 57.27 255.2 57.27"/>
    <path class="cls-3" d="M254.27,34.99l-3.15,5.37c-4.21,.04-8.42,.08-12.64,.12l-6.71,.05v-5.53h22.5Z"/>
    <path class="cls-2" d="M219.64,52.08c3.72-.98,6.47-4.39,6.47-8.41,0-4.8-3.9-8.71-8.7-8.71h-15.98v27.68h6.61v-10.27h3.85l6.78,10.24,7.93-.02-6.96-10.52Zm-2.23-5.21h-9.37v-6.4h9.37c1.77,0,3.2,1.44,3.2,3.21s-1.43,3.2-3.2,3.2Z"/>
    <path class="cls-2" d="M198,62.71h-7.26l-4.49-11.65c-.15-.4-.8-2.08-.96-2.48-1.07-2.76-2.13-5.52-3.19-8.28l-.02-.07c-.1-.3-.2-.58-.28-.85h-.04s0,.02,0,.02l-.02-.04-1.56,4.39-4.28,12.06,6.37-4.71,.66-.53,1.7,4.21-11.18,7.94h-6.91l11.14-27.65h8.61l11.71,27.65Z"/>
    <path class="cls-2" d="M290.34,62.44h-7.26l-4.49-11.65c-.15-.4-.8-2.08-.96-2.48-1.07-2.76-2.13-5.52-3.19-8.28l-.02-.07c-.1-.3-.2-.58-.28-.85h-.04s0,.02,0,.02l-.02-.04-1.56,4.39-4.28,12.06,6.37-4.71,.66-.53,1.7,4.21-11.18,7.94h-6.91l11.14-27.65h8.61l11.71,27.65Z"/>
  </g>
</svg>